<?xml version="1.0" encoding="UTF-8" standalone="no"?>
<!-- Created with Inkscape (http://www.inkscape.org/) -->

<svg
   xmlns:dc="http://purl.org/dc/elements/1.1/"
   xmlns:cc="http://creativecommons.org/ns#"
   xmlns:rdf="http://www.w3.org/1999/02/22-rdf-syntax-ns#"
   xmlns:svg="http://www.w3.org/2000/svg"
   xmlns="http://www.w3.org/2000/svg"
   xmlns:sodipodi="http://sodipodi.sourceforge.net/DTD/sodipodi-0.dtd"
   xmlns:inkscape="http://www.inkscape.org/namespaces/inkscape"
   version="1.1"
   id="svg2"
   width="266.66666"
   height="266.66666"
   viewBox="0 0 266.66666 266.66666"
   sodipodi:docname="Arduino-icon.svg"
   inkscape:version="0.92.2 2405546, 2018-03-11"
   inkscape:export-filename="/home/bastian/Sync/RTII Arduino Exercises/RTII Logging/Assets/program-icon.png"
   inkscape:export-xdpi="184.32001"
   inkscape:export-ydpi="184.32001">
  <metadata
     id="metadata8">
    <rdf:RDF>
      <cc:Work
         rdf:about="">
        <dc:format>image/svg+xml</dc:format>
        <dc:type
           rdf:resource="http://purl.org/dc/dcmitype/StillImage" />
        <dc:title></dc:title>
      </cc:Work>
    </rdf:RDF>
  </metadata>
  <defs
     id="defs6" />
  <sodipodi:namedview
     pagecolor="#ffffff"
     bordercolor="#666666"
     borderopacity="1"
     objecttolerance="10"
     gridtolerance="10"
     guidetolerance="10"
     inkscape:pageopacity="0"
     inkscape:pageshadow="2"
     inkscape:window-width="1920"
     inkscape:window-height="1016"
     id="namedview4"
     showgrid="false"
     inkscape:zoom="1.2515791"
     inkscape:cx="111.73921"
     inkscape:cy="237.54767"
     inkscape:window-x="0"
     inkscape:window-y="27"
     inkscape:window-maximized="1"
     inkscape:current-layer="svg2" />
  <rect
     style="opacity:1;vector-effect:none;fill:#0193a0;fill-opacity:1;fill-rule:evenodd;stroke:none;stroke-width:3.81641269;stroke-linecap:butt;stroke-linejoin:miter;stroke-miterlimit:4;stroke-dasharray:none;stroke-dashoffset:0;stroke-opacity:1"
     id="rect821"
     width="20.801168"
     height="108.83468"
     x="203.61674"
     y="80.145958"
     rx="2.6565592"
     ry="1.3337375" />
  <g
     id="g3745"
     transform="matrix(0.92979666,0,0,0.92979666,0.43390585,2.6954887)">
    <rect
       ry="1.43444"
       rx="2.8571401"
       y="44.147751"
       x="31.959627"
       height="158.59966"
       width="196.9512"
       id="rect819"
       style="opacity:1;vector-effect:none;fill:#0193a0;fill-opacity:1;fill-rule:evenodd;stroke:none;stroke-width:4.10456705;stroke-linecap:butt;stroke-linejoin:miter;stroke-miterlimit:4;stroke-dasharray:none;stroke-dashoffset:0;stroke-opacity:1" />
    <path
       sodipodi:nodetypes="cscccsccsscssscssscssscssscssscssscssscscscccscccscccscccccccccscscsscscsccscsccscsccscsccscsccscsccscsccscsccscsccscsccscsccscsccscsccscsccsscsscsccscccccssscsssssccsscccsssssssssssss"
       inkscape:connector-curvature="0"
       id="path817"
       d="m 113.57202,178.8677 c -1.88735,-1.88736 -0.81937,-4.47222 1.84777,-4.47222 1.86395,0 2.62401,0.72406 2.33333,2.22284 -0.47592,2.45397 -2.752,3.67848 -4.1811,2.24938 z m 8,0 c -1.88735,-1.88736 -0.81937,-4.47222 1.84777,-4.47222 1.86395,0 2.62401,0.72406 2.33333,2.22284 -0.47592,2.45397 -2.752,3.67848 -4.1811,2.24938 z m 8,0 c -1.88736,-1.88736 -0.81937,-4.47222 1.84776,-4.47222 1.86396,0 2.62402,0.72406 2.33334,2.22284 -0.47592,2.45397 -2.752,3.67848 -4.1811,2.24938 z m 8,0 c -1.88736,-1.88736 -0.81937,-4.47222 1.84776,-4.47222 1.86396,0 2.62402,0.72406 2.33334,2.22284 -0.47592,2.45397 -2.752,3.67848 -4.1811,2.24938 z m 8,0 c -1.88736,-1.88736 -0.81937,-4.47222 1.84776,-4.47222 1.86397,0 2.62403,0.72406 2.33335,2.22284 -0.47592,2.45397 -2.75201,3.67848 -4.18111,2.24938 z m 8.00001,0 c -1.88736,-1.88736 -0.81937,-4.47222 1.84776,-4.47222 1.86396,0 2.62402,0.72406 2.33334,2.22284 -0.47592,2.45397 -2.752,3.67848 -4.1811,2.24938 z m 8,0 c -1.88736,-1.88736 -0.81937,-4.47222 1.84776,-4.47222 1.86396,0 2.62402,0.72406 2.33334,2.22284 -0.47592,2.45397 -2.752,3.67848 -4.1811,2.24938 z m 8,0 c -1.88736,-1.88736 -0.81937,-4.47222 1.84776,-4.47222 1.86396,0 2.62402,0.72406 2.33334,2.22284 -0.47592,2.45397 -2.752,3.67848 -4.1811,2.24938 z m 8,0 c -1.88736,-1.88736 -0.81937,-4.47222 1.84776,-4.47222 1.86396,0 2.62402,0.72406 2.33334,2.22284 -0.47592,2.45397 -2.752,3.67848 -4.1811,2.24938 z m 8,0 c -1.88736,-1.88736 -0.81937,-4.47222 1.84776,-4.47222 1.86396,0 2.62402,0.72406 2.33334,2.22284 -0.47592,2.45397 -2.752,3.67848 -4.1811,2.24938 z m 8,0 c -1.88736,-1.88736 -0.81937,-4.47222 1.84776,-4.47222 1.86396,0 2.62401,0.72406 2.33333,2.22284 -0.47592,2.45397 -2.752,3.67848 -4.18109,2.24938 z m 8,0 c -1.88736,-1.88736 -0.81937,-4.47222 1.84776,-4.47222 1.86396,0 2.62401,0.72406 2.33333,2.22284 -0.47592,2.45397 -2.752,3.67848 -4.18109,2.24938 z m 8,0 c -1.88736,-1.88736 -0.81937,-4.47222 1.84776,-4.47222 1.86396,0 2.62401,0.72406 2.33333,2.22284 -0.47592,2.45397 -2.752,3.67848 -4.18109,2.24938 z m 8,0 c -1.88736,-1.88736 -0.81937,-4.47222 1.84776,-4.47222 1.86396,0 2.62401,0.72406 2.33333,2.22284 -0.47592,2.45397 -2.752,3.67848 -4.18109,2.24938 z m -109.68248,-8.91644 c -0.38102,-0.99294 -0.51459,-6.2492 -0.29682,-11.68056 l 0.39596,-9.87522 h 59.33334 59.33333 v 11.33333 11.33333 l -59.03651,0.34723 c -48.65661,0.28619 -59.15833,0.0299 -59.7293,-1.45811 z m 116.76581,-10.22245 c 0,-5.51284 -0.97692,-6.48975 -3.73333,-3.73333 -2.82817,2.82817 -0.99332,9.06666 2.66667,9.06666 0.58666,0 1.06666,-2.4 1.06666,-5.33333 z m -111.74618,-17 c 0.24715,-1.28333 1.33293,-2.33333 2.41284,-2.33333 1.07992,0 2.1657,1.05 2.41284,2.33333 0.31528,1.63713 -0.40464,2.33333 -2.41284,2.33333 -2.0082,0 -2.72812,-0.6962 -2.41284,-2.33333 z m 8,0 c 0.24715,-1.28333 1.33293,-2.33333 2.41284,-2.33333 1.07992,0 2.1657,1.05 2.41284,2.33333 0.31528,1.63713 -0.40464,2.33333 -2.41284,2.33333 -2.0082,0 -2.72812,-0.6962 -2.41284,-2.33333 z m 8,0 c 0.24715,-1.28333 1.33292,-2.33333 2.41284,-2.33333 1.07992,0 2.1657,1.05 2.41284,2.33333 0.31528,1.63713 -0.40464,2.33333 -2.41284,2.33333 -2.0082,0 -2.72812,-0.6962 -2.41284,-2.33333 z m 8,0 c 0.24715,-1.28333 1.33292,-2.33333 2.41284,-2.33333 1.07992,0 2.1657,1.05 2.41284,2.33333 0.31528,1.63713 -0.40464,2.33333 -2.41284,2.33333 -2.0082,0 -2.72812,-0.6962 -2.41284,-2.33333 z m 8,0 c 0.24715,-1.28333 1.33292,-2.33333 2.41284,-2.33333 1.07992,0 2.16571,1.05 2.41285,2.33333 0.31528,1.63713 -0.40464,2.33333 -2.41285,2.33333 -2.0082,0 -2.72812,-0.6962 -2.41284,-2.33333 z m 8.00001,0 c 0.24715,-1.28333 1.33292,-2.33333 2.41284,-2.33333 1.07992,0 2.1657,1.05 2.41284,2.33333 0.31528,1.63713 -0.40464,2.33333 -2.41284,2.33333 -2.0082,0 -2.72812,-0.6962 -2.41284,-2.33333 z m 8,0 c 0.24715,-1.28333 1.33292,-2.33333 2.41284,-2.33333 1.07992,0 2.1657,1.05 2.41284,2.33333 0.31528,1.63713 -0.40464,2.33333 -2.41284,2.33333 -2.0082,0 -2.72812,-0.6962 -2.41284,-2.33333 z m 8,0 c 0.24715,-1.28333 1.33292,-2.33333 2.41284,-2.33333 1.07992,0 2.1657,1.05 2.41284,2.33333 0.31528,1.63713 -0.40464,2.33333 -2.41284,2.33333 -2.0082,0 -2.72812,-0.6962 -2.41284,-2.33333 z m 8,0 c 0.24715,-1.28333 1.33292,-2.33333 2.41284,-2.33333 1.07992,0 2.1657,1.05 2.41284,2.33333 0.31528,1.63713 -0.40464,2.33333 -2.41284,2.33333 -2.0082,0 -2.72812,-0.6962 -2.41284,-2.33333 z m 8,0 c 0.24715,-1.28333 1.33292,-2.33333 2.41284,-2.33333 1.07992,0 2.1657,1.05 2.41284,2.33333 0.31528,1.63713 -0.40464,2.33333 -2.41284,2.33333 -2.0082,0 -2.72812,-0.6962 -2.41284,-2.33333 z m 8,0 c 0.24715,-1.28333 1.33292,-2.33333 2.41284,-2.33333 1.07992,0 2.16569,1.05 2.41284,2.33333 0.31528,1.63713 -0.40464,2.33333 -2.41284,2.33333 -2.0082,0 -2.72812,-0.6962 -2.41284,-2.33333 z m 8,0 c 0.24715,-1.28333 1.33292,-2.33333 2.41284,-2.33333 1.07992,0 2.16569,1.05 2.41284,2.33333 0.31528,1.63713 -0.40464,2.33333 -2.41284,2.33333 -2.0082,0 -2.72812,-0.6962 -2.41284,-2.33333 z m 8,0 c 0.24715,-1.28333 1.33292,-2.33333 2.41284,-2.33333 1.07992,0 2.16569,1.05 2.41284,2.33333 0.31528,1.63713 -0.40464,2.33333 -2.41284,2.33333 -2.0082,0 -2.72812,-0.6962 -2.41284,-2.33333 z m 8,0 c 0.24715,-1.28333 1.33292,-2.33333 2.41284,-2.33333 1.07992,0 2.16569,1.05 2.41284,2.33333 0.31528,1.63713 -0.40464,2.33333 -2.41284,2.33333 -2.0082,0 -2.72812,-0.6962 -2.41284,-2.33333 z M 99.883893,111.86704 c -16.1372,-7.32916 -17.79239,-29.753157 -2.86619,-38.830325 10.266747,-6.243584 23.752907,-4.089604 32.634867,5.21237 l 4.59573,4.81306 5.82816,-5.603954 c 9.55061,-9.183205 20.95656,-10.549825 31.37052,-3.758707 6.64119,4.330829 9.6624,11.203055 8.91063,20.268587 -0.72695,8.766009 -3.84488,13.398579 -11.72948,17.427409 -10.17931,5.20136 -20.21685,3.17923 -29.59905,-5.96293 l -4.95962,-4.83272 -2.71192,3.44765 c -3.64716,4.63662 -15.44932,10.35486 -21.29731,10.31871 -2.60601,-0.0161 -7.18536,-1.14072 -10.176337,-2.49915 z m 17.616197,-7.64543 c 2.5196,-1.19562 6.3263,-4.291119 8.45935,-6.878869 3.64657,-4.42393 3.76337,-4.92717 1.95516,-8.423876 -3.42812,-6.62924 -10.87244,-11.190053 -18.26483,-11.190053 -5.70916,0 -7.04412,0.556945 -10.437117,4.354369 -6.16949,6.90486 -4.9605,17.37382 2.544027,22.029469 4.55189,2.8239 9.94347,2.86122 15.74341,0.10896 z m -13.5114,-11.159469 c -1.62153,-2.62369 0.92878,-3.999996 7.41202,-3.999996 5.69909,0 6.58798,0.359803 6.58798,2.666666 0,2.30686 -0.88889,2.66667 -6.58798,2.66667 -3.62338,0 -6.95879,-0.6 -7.41202,-1.33334 z m 64.81545,8.524139 c 5.44587,-5.217479 5.42937,-13.382477 -0.0395,-19.503099 -3.39293,-3.797424 -4.72789,-4.354369 -10.43705,-4.354369 -7.67543,0 -14.88162,4.596127 -17.63741,11.249181 -1.53323,3.701528 -1.37521,4.489898 1.71079,8.535858 7.22361,9.470629 18.89037,11.270109 26.40314,4.072429 z m -13.48211,-5.190799 c 0,-1.11111 -1.18518,-2 -2.66666,-2 -1.77778,0 -2.66667,-0.88889 -2.66667,-2.66667 0,-1.777776 0.88889,-2.666666 2.66667,-2.666666 1.48148,0 2.66666,-0.888889 2.66666,-2 0,-1.1 0.9,-2 2,-2 1.1,0 2,0.9 2,2 0,1.111111 1.18519,2 2.66667,2 1.77777,0 2.66667,0.88889 2.66667,2.666666 0,1.77778 -0.8889,2.66667 -2.66667,2.66667 -1.48148,0 -2.66667,0.88889 -2.66667,2 0,1.1 -0.9,2 -2,2 -1.1,0 -2,-0.9 -2,-2 z"
       style="fill:#f8f8f8;fill-opacity:1;stroke-width:1.33333325" />
    <path
       sodipodi:nodetypes="ccscsccccccccccscscscccccccscccscccsccccsssssccscccscc"
       inkscape:connector-curvature="0"
       id="path817-4"
       d="m 28.722283,209.80943 c -4.17794,-5.0341 1.30006,-13.69976 6.57705,-10.40424 2.05065,1.28067 24.56308,1.65695 99.131277,1.65695 91.77311,0 96.58573,-0.11893 98.68477,-2.43832 1.97489,-2.18223 2.20665,-7.96773 2.20665,-55.08388 V 90.89439 l -4,-3.832246 -4,-3.832242 V 66.146023 49.062145 H 132.71377 38.105523 l -0.39174,9.526976 c -0.30174,7.338018 -0.92787,9.863858 -2.72508,10.993181 -1.69685,1.066252 -2.96982,1.065759 -4.66667,-0.0019 -1.91377,-1.203982 -2.40225,-3.804633 -2.7166,-14.463007 -0.24874,-8.433997 0.15955,-13.649097 1.16326,-14.858504 1.29972,-1.566057 17.86252,-1.863445 103.783247,-1.863445 77.7397,0 102.62013,0.383377 103.83676,1.6 1.09328,1.093282 1.6,7.55938 1.6,20.417211 v 18.817212 l 4,3.832242 4,3.832243 v 56.806266 56.80626 l -5.71714,5.61095 -5.71713,5.61095 H 132.43481 c -87.239767,0 -102.351697,-0.27967 -103.712527,-1.91938 z m -8.82855,-15.84732 c -0.37287,-0.97168 -0.50404,-7.42167 -0.29149,-14.33333 l 0.38646,-12.56664 h 22 22 l 0.38514,12.46763 c 0.24857,8.04664 -0.16391,13.12918 -1.16326,14.33333 -2.19269,2.64203 -42.30582,2.73372 -43.31685,0.0991 z m 8.89194,-32.07629 c -1.05045,-1.26572 -1.41481,-8.84252 -1.16326,-24.18969 0.32108,-19.58869 0.65427,-22.52816 2.69962,-23.81686 1.70032,-1.07131 2.96635,-1.07131 4.66667,0 2.04535,1.2887 2.37854,4.22817 2.69961,23.81686 0.37838,23.08431 -0.19164,26.03268 -5.03295,26.03268 -1.28708,0 -3.02844,-0.82935 -3.86969,-1.84299 z M 6.570403,108.65485 c -0.36737,-0.95734 -0.49854,-9.20734 -0.29149,-18.333331 l 0.37645,-16.592708 h 24.66667 24.66667 l 0.37554,16.479191 c 0.25093,11.011028 -0.13507,17.094438 -1.16326,18.333328 -2.1735,2.61891 -47.62846,2.72501 -48.63058,0.11352 z"
       style="fill:#003a3f;fill-opacity:1;stroke-width:1.33333325" />
  </g>
  <rect
     y="115.72886"
     x="242.84746"
     height="147.07344"
     width="147.07344"
     id="rect10727-3-4-6"
     style="color:#bebebe;display:inline;overflow:visible;visibility:visible;opacity:0.51464431;fill:none;stroke:none;stroke-width:27.57627106;marker:none;enable-background:accumulate" />
  <g
     id="g3719"
     transform="matrix(10.288361,0,0,10.288361,-255.33299,-3987.5468)">
    <path
       inkscape:connector-curvature="0"
       id="path1234"
       d="m 41.798217,399.37446 a 0.68252151,0.68252151 0 0 0 -0.554493,0.68245 v 8.87189 a 0.68252151,0.68252151 0 0 0 0.682453,0.68246 h 6.824534 a 0.68252151,0.68252151 0 0 0 0.682453,-0.68246 v -6.44065 a 0.68252151,0.68252151 0 0 0 -0.19194,-0.49051 l -2.43124,-2.43124 a 0.68252151,0.68252151 0 0 0 -0.490513,-0.19194 h -4.393294 a 0.68252151,0.68252151 0 0 0 -0.06395,0 0.68252151,0.68252151 0 0 0 -0.06394,0 z m 0.810414,1.3649 h 3.412266 v 2.04736 h 2.04736 v 5.45963 h -5.459626 z"
       style="color:#000000;font-style:normal;font-variant:normal;font-weight:normal;font-stretch:normal;font-size:medium;line-height:normal;font-family:Sans;-inkscape-font-specification:Sans;text-indent:0;text-align:start;text-decoration:none;text-decoration-line:none;letter-spacing:normal;word-spacing:normal;text-transform:none;writing-mode:lr-tb;direction:ltr;baseline-shift:baseline;text-anchor:start;display:inline;overflow:visible;visibility:visible;fill:#003a3f;fill-opacity:1;stroke:none;stroke-width:1.36490655;marker:none;enable-background:accumulate" />
    <path
       inkscape:connector-curvature="0"
       id="path1234-8"
       d="m 42.608631,400.73936 h 3.412266 v 2.04736 h 2.04736 v 5.45963 h -5.459626 z"
       style="color:#000000;font-style:normal;font-variant:normal;font-weight:normal;font-stretch:normal;font-size:medium;line-height:normal;font-family:Sans;-inkscape-font-specification:Sans;text-indent:0;text-align:start;text-decoration:none;text-decoration-line:none;letter-spacing:normal;word-spacing:normal;text-transform:none;writing-mode:lr-tb;direction:ltr;baseline-shift:baseline;text-anchor:start;display:inline;overflow:visible;visibility:visible;fill:#ffffff;fill-opacity:1;stroke:none;stroke-width:1.36490655;marker:none;enable-background:accumulate"
       sodipodi:nodetypes="ccccccc" />
  </g>
</svg>
